# File created by Blade
# Date/Time:  Fri Jan 16 19:50:04 2015
#---------------------------------------------------------
:version 1.10
:name HOM
:units
  mass 1.0
  length 1.000000
  angle deg
:documentation
     Acclaim Skeleton File
:root
   axis xyz
   order TX TY TZ RX RY RZ
   position 0.000000 0.000000 0.000000
   orientation 0 0 0
:bonedata
   begin
      id 1
      name Spine_dum
      direction 0.000000 1.000000 0.000000
      length 7.067664
      axis 0.0 0.0 0.0 xyz
   end
   begin
      id 2
      name LeftUpLeg_dum
      direction 1.000000 0.000000 0.000000
      length 4.013002
      axis 0.0 0.0 0.0 xyz
   end
   begin
      id 3
      name RightUpLeg_dum
      direction -1.000000 0.000000 0.000000
      length 4.013002
      axis 0.0 0.0 0.0 xyz
   end
   begin
      id 4
      name Spine
      direction 0.000000 1.000000 0.000000
      length 0.000000
      axis 0.0 0.0 0.0 xyz
      dof rx ry rz
   end
   begin
      id 5
      name Spine_dum1
      direction 0.000000 1.000000 0.000000
      length 15.039886
      axis 0.0 0.0 0.0 xyz
   end
   begin
      id 6
      name Spine_dum2
      direction 0.000000 1.000000 0.000000
      length 10.530368
      axis 0.0 0.0 0.0 xyz
   end
   begin
      id 7
      name Spine_dum3
      direction 0.000000 1.000000 0.000000
      length 10.530368
      axis 0.0 0.0 0.0 xyz
   end
   begin
      id 8
      name Head
      direction 0.000000 1.000000 0.000000
      length 4.527550
      axis 0.0 0.0 0.0 xyz
      dof rx ry rz
   end
   begin
      id 9
      name LeftShoulder
      direction 1.000000 0.000000 0.000000
      length 7.028855
      axis 0.0 0.0 -90.0 xyz
      dof rx ry rz
   end
   begin
      id 10
      name LeftArm
      direction 1.000000 0.000000 0.000000
      length 10.797705
      axis 0.0 0.0 -90.0 xyz
      dof rx ry rz
   end
   begin
      id 11
      name LeftForeArm
      direction 1.000000 0.000000 0.000000
      length 7.907442
      axis 0.0 0.0 -90.0 xyz
      dof ry rz rx
   end
   begin
      id 12
      name LeftHand
      direction 0.000000 0.000000 0.000000
      length 0.000000
      axis 0.0 0.0 -90.0 xyz
      dof rx ry rz
   end
   begin
      id 13
      name LeftHand_dum1
      direction 0.000000 0.000000 0.000000
      length 0.000000
      axis 0.0 0.0 -90.0 xyz
   end
   begin
      id 14
      name LeftHand_dum2
      direction 1.000000 0.000000 0.000000
      length 3.937000
      axis 0.0 0.0 -90.0 xyz
   end
   begin
      id 15
      name LeftHandThumb1
      direction 0.000000 0.000000 1.000000
      length 3.937000
      axis 0.0 0.0 -90.0 xyz
      dof rx rz ry
   end
   begin
      id 16
      name RightShoulder
      direction -1.000000 0.000000 0.000000
      length 7.028855
      axis 0.0 0.0 90.0 xyz
      dof rx ry rz
   end
   begin
      id 17
      name RightArm
      direction -1.000000 0.000000 0.000000
      length 10.797705
      axis 0.0 0.0 90.0 xyz
      dof rx ry rz
   end
   begin
      id 18
      name RightForeArm
      direction -1.000000 0.000000 0.000000
      length 7.907442
      axis 0.0 0.0 90.0 xyz
      dof ry rz rx
   end
   begin
      id 19
      name RightHand
      direction 0.000000 0.000000 0.000000
      length 0.000000
      axis 0.0 0.0 90.0 xyz
      dof rx ry rz
   end
   begin
      id 20
      name RightHand_dum1
      direction 0.000000 0.000000 0.000000
      length 0.000000
      axis 0.0 0.0 90.0 xyz
   end
   begin
      id 21
      name RightHand_dum2
      direction -1.000000 0.000000 0.000000
      length 3.937000
      axis 0.0 0.0 90.0 xyz
   end
   begin
      id 22
      name RightHandThumb1
      direction 0.000000 0.000000 1.000000
      length 3.937000
      axis 0.0 0.0 90.0 xyz
      dof rx rz ry
   end
   begin
      id 23
      name LeftUpLeg
      direction 0.000000 -1.000000 0.000000
      length 16.899758
      axis 0.0 0.0 0.0 xyz
      dof rx ry rz
   end
   begin
      id 24
      name LeftLeg
      direction 0.000000 -1.000000 0.000000
      length 17.389183
      axis 0.0 0.0 0.0 xyz
      dof rx ry rz
   end
   begin
      id 25
      name LeftFoot
      direction 0.000000 -0.258819 0.965926
      length 4.924528
      axis 15.0 0.0 0.0 xyz
      dof rx ry rz
   end
   begin
      id 26
      name LeftToeBase
      direction 0.000000 0.000000 1.000000
      length 2.952750
      axis 0.0 0.0 0.0 xyz
      dof rx ry rz
   end
   begin
      id 27
      name RightUpLeg
      direction 0.000000 -1.000000 0.000000
      length 16.899758
      axis 0.0 0.0 0.0 xyz
      dof rx ry rz
   end
   begin
      id 28
      name RightLeg
      direction 0.000000 -1.000000 0.000000
      length 17.389183
      axis 0.0 0.0 0.0 xyz
      dof rx ry rz
   end
   begin
      id 29
      name RightFoot
      direction 0.000000 -0.258819 0.965926
      length 4.924528
      axis 15.0 0.0 0.0 xyz
      dof rx ry rz
   end
   begin
      id 30
      name RightToeBase
      direction 0.000000 0.000000 1.000000
      length 2.952750
      axis 0.0 0.0 0.0 xyz
      dof rx ry rz
   end
:hierarchy
   begin
      root Spine_dum LeftUpLeg_dum RightUpLeg_dum
      Spine_dum Spine
      LeftUpLeg_dum LeftUpLeg
      RightUpLeg_dum RightUpLeg
      Spine Spine_dum1 Spine_dum2 Spine_dum3
      Spine_dum1 Head
      Spine_dum2 LeftShoulder
      Spine_dum3 RightShoulder
      LeftShoulder LeftArm
      LeftArm LeftForeArm
      LeftForeArm LeftHand
      LeftHand LeftHand_dum1 LeftHand_dum2
      LeftHand_dum1 LeftHandThumb1
      RightShoulder RightArm
      RightArm RightForeArm
      RightForeArm RightHand
      RightHand RightHand_dum1 RightHand_dum2
      RightHand_dum1 RightHandThumb1
      LeftUpLeg LeftLeg
      LeftLeg LeftFoot
      LeftFoot LeftToeBase
      RightUpLeg RightLeg
      RightLeg RightFoot
      RightFoot RightToeBase
   end

# File created by Blade
# Date/Time:  Fri Jan 16 19:49:56 2015
# Frame Rate: 120.000 fps
#------------------------------------------------------
:FULLY-SPECIFIED
:DEGREES
119
root 19.631505 35.311290 -21.224520 -170.460977 0.178664 -178.523584
Spine -12.390917 -1.508789 0.967189
Head 5.726880 0.462133 3.502511
LeftShoulder -16.801185 -11.665052 6.416851
LeftArm -46.969953 41.730549 -94.041152
LeftForeArm 6.802456 0.000000 14.646956
LeftHand -1.055236 -0.000000 -27.604787
LeftHandThumb1 -26.253704 0.000000 33.147579
RightShoulder -18.745558 -23.245207 4.199280
RightArm -0.753594 -17.507019 63.704431
RightForeArm -33.776063 -0.000000 15.745755
RightHand -1.283462 0.000000 12.672254
RightHandThumb1 -24.326973 -0.000000 -32.862282
LeftUpLeg -0.815945 8.737259 3.512671
LeftLeg -6.830429 -0.000000 0.000000
LeftFoot -20.471511 30.999321 -11.033500
LeftToeBase 27.511655 -0.000000 -0.000000
RightUpLeg -1.795059 -8.582484 -2.064944
RightLeg -3.670358 -0.000000 0.000000
RightFoot -20.396309 -19.010591 16.542704
RightToeBase 25.476221 -0.000000 -0.000000
120
root 19.633384 35.310583 -21.240020 -170.468512 0.179503 -178.525510
Spine -12.397448 -1.580188 0.980779
Head 5.993614 0.538110 3.584956
LeftShoulder -16.950946 -11.394589 6.236045
LeftArm -48.240517 41.244723 -96.185309
LeftForeArm 7.263553 -0.000000 14.783803
LeftHand -0.771452 0.000000 -27.903324
LeftHandThumb1 -26.253704 0.000000 33.147579
RightShoulder -18.855918 -23.439469 4.473629
RightArm -1.378732 -18.092822 64.977835
RightForeArm -33.129505 -0.000000 15.581001
RightHand -1.234532 -0.000000 13.464510
RightHandThumb1 -24.326973 -0.000000 -32.862282
LeftUpLeg -0.782715 8.748188 3.517836
LeftLeg -6.831897 -0.000000 0.000000
LeftFoot -20.493305 30.984269 -11.053381
LeftToeBase 27.546151 -0.000000 -0.000000
RightUpLeg -1.764556 -8.522119 -2.070696
RightLeg -3.663196 -0.000000 0.000000
RightFoot -20.434836 -19.066858 16.570228
RightToeBase 25.470232 -0.000000 -0.000000
121
root 19.642836 35.309231 -21.260803 -170.475295 0.181005 -178.481355
Spine -12.427277 -1.619978 1.035000
Head 6.246495 0.490896 3.600694
LeftShoulder -17.053901 -10.953509 6.003670
LeftArm -49.284807 40.787676 -98.175799
LeftForeArm 7.625423 -0.000000 14.940900
LeftHand -0.557963 0.000000 -28.155085
LeftHandThumb1 -26.253704 0.000000 33.147579
RightShoulder -19.032788 -23.723195 4.749192
RightArm -1.886007 -18.558760 66.232892
RightForeArm -32.656280 0.000000 15.361216
RightHand -1.157859 -0.000000 14.313704
RightHandThumb1 -24.326973 -0.000000 -32.862282
LeftUpLeg -0.732121 8.715525 3.585462
LeftLeg -6.848108 -0.000000 0.000000
LeftFoot -20.536007 31.025451 -11.081740
LeftToeBase 27.520646 -0.000000 -0.000000
RightUpLeg -1.727367 -8.480940 -2.012688
RightLeg -3.655989 -0.000000 0.000000
RightFoot -20.467507 -19.114786 16.622066
RightToeBase 25.397090 -0.000000 -0.000000
122
root 19.639175 35.308537 -21.276132 -170.486350 0.251581 -178.487194
Spine -12.435169 -1.610927 1.050272
Head 6.479056 0.510834 3.617727
LeftShoulder -17.204482 -10.641829 5.821436
LeftArm -50.368935 40.297400 -100.162609
LeftForeArm 8.038583 -0.000000 15.107035
LeftHand -0.395959 -0.000000 -28.451266
LeftHandThumb1 -26.253704 0.000000 33.147579
RightShoulder -19.152518 -23.989277 4.964494
RightArm -2.411630 -19.197216 67.478125
RightForeArm -32.039954 -0.000000 15.131268
RightHand -1.016796 -0.000000 14.952118
RightHandThumb1 -24.326973 -0.000000 -32.862282
LeftUpLeg -0.688250 8.755852 3.568434
LeftLeg -6.835565 -0.000000 0.000000
LeftFoot -20.574782 31.049540 -11.104953
LeftToeBase 27.532921 -0.000000 -0.000000
RightUpLeg -1.720144 -8.388900 -2.040542
RightLeg -3.618849 -0.000000 0.000000
RightFoot -20.499088 -19.135725 16.622819
RightToeBase 25.607126 -0.000000 -0.000000
123
root 19.644578 35.307916 -21.295767 -170.511000 0.193527 -178.482068
Spine -12.445882 -1.683247 1.068754
Head 6.756222 0.468014 3.652556
LeftShoulder -17.315877 -10.324280 5.666474
LeftArm -51.409231 39.812795 -102.100614
LeftForeArm 8.347707 -0.000000 15.271861
LeftHand -0.202935 0.000000 -29.016044
LeftHandThumb1 -26.253704 0.000000 33.147579
RightShoulder -19.356575 -24.297757 5.206483
RightArm -2.885324 -19.905139 68.741094
RightForeArm -31.732420 -0.000000 14.926011
RightHand -0.909665 -0.000000 15.510613
RightHandThumb1 -24.326973 -0.000000 -32.862282
LeftUpLeg -0.643787 8.660971 3.598435
LeftLeg -6.828442 -0.000000 0.000000
LeftFoot -20.607656 31.100004 -11.155035
LeftToeBase 27.492182 -0.000000 -0.000000
RightUpLeg -1.642065 -8.441537 -2.023675
RightLeg -3.646961 -0.000000 0.000000
RightFoot -20.490429 -19.089124 16.747228
RightToeBase 25.200901 -0.000000 -0.000000
124
root 19.644677 35.306755 -21.319005 -170.556833 0.204418 -178.479879
Spine -12.437844 -1.676788 1.085274
Head 7.005059 0.395337 3.637072
LeftShoulder -17.441428 -9.945043 5.515598
LeftArm -52.289822 39.336445 -103.899687
LeftForeArm 8.507460 0.000000 15.481537
LeftHand -0.112249 -0.000000 -29.213781
LeftHandThumb1 -26.253704 0.000000 33.147579
RightShoulder -19.589395 -24.693505 5.442834
RightArm -3.239748 -20.645515 69.963339
RightForeArm -31.496738 -0.000000 14.722963
RightHand -0.837419 0.000000 16.241198
RightHandThumb1 -24.326973 -0.000000 -32.862282
LeftUpLeg -0.575599 8.688800 3.611255
LeftLeg -6.789191 -0.000000 0.000000
LeftFoot -20.666861 31.062165 -11.185852
LeftToeBase 27.494234 -0.000000 -0.000000
RightUpLeg -1.569735 -8.443181 -2.029915
RightLeg -3.627186 -0.000000 0.000000
RightFoot -20.530310 -19.118183 16.667756
RightToeBase 25.315281 -0.000000 -0.000000
125
root 19.650052 35.306527 -21.335566 -170.586058 0.169325 -178.466721
Spine -12.428033 -1.690085 1.099822
Head 7.198338 0.282688 3.666383
LeftShoulder -17.503801 -9.659356 5.391813
LeftArm -53.167205 38.742774 -105.594375
LeftForeArm 8.651546 -0.000000 15.684926
LeftHand 0.128922 -0.000000 -29.679353
LeftHandThumb1 -26.253704 0.000000 33.147579
RightShoulder -19.843710 -25.049328 5.698898
RightArm -3.627546 -21.425530 71.160714
RightForeArm -31.341898 -0.000000 14.588776
RightHand -0.727930 -0.000000 16.969846
RightHandThumb1 -24.326973 -0.000000 -32.862282
LeftUpLeg -0.535283 8.607274 3.649013
LeftLeg -6.767108 -0.000000 0.000000
LeftFoot -20.699789 31.114190 -11.219695
LeftToeBase 27.464789 -0.000000 -0.000000
RightUpLeg -1.511739 -8.421917 -2.014283
RightLeg -3.615485 -0.000000 0.000000
RightFoot -20.577535 -19.147217 16.724264
RightToeBase 25.349408 -0.000000 -0.000000
126
root 19.646635 35.307077 -21.354359 -170.609624 0.171388 -178.488850
Spine -12.447494 -1.687933 1.107298
Head 7.467002 0.155529 3.653193
LeftShoulder -17.594781 -9.248892 5.224679
LeftArm -53.834335 38.178134 -107.106480
LeftForeArm 8.749820 -0.000000 15.903556
LeftHand 0.215348 0.000000 -29.949229
LeftHandThumb1 -26.253704 0.000000 33.147579
RightShoulder -20.062066 -25.499952 5.918958
RightArm -3.932862 -22.225138 72.333155
RightForeArm -31.120359 -0.000000 14.408056
RightHand -0.555511 -0.000000 17.632523
RightHandThumb1 -24.326973 -0.000000 -32.862282
LeftUpLeg -0.514314 8.653096 3.626129
LeftLeg -6.698517 -0.000000 0.000000
LeftFoot -20.749074 31.044600 -11.240836
LeftToeBase 27.468405 -0.000000 -0.000000
RightUpLeg -1.470629 -8.415008 -2.049649
RightLeg -3.590764 -0.000000 0.000000
RightFoot -20.613283 -19.154894 16.746048
RightToeBase 25.404089 -0.000000 -0.000000
127
root 19.646833 35.306769 -21.371517 -170.674898 0.179110 -178.496741
Spine -12.394479 -1.662841 1.102795
Head 7.653043 0.073972 3.661875
LeftShoulder -17.655641 -8.851366 5.094399
LeftArm -54.361642 37.579035 -108.470667
LeftForeArm 8.574471 -0.000000 16.074157
LeftHand 0.319128 -0.000000 -30.375609
LeftHandThumb1 -26.253704 0.000000 33.147579
RightShoulder -20.276368 -25.905505 6.160804
RightArm -4.263915 -22.942832 73.485976
RightForeArm -30.801669 -0.000000 14.282027
RightHand -0.518711 0.000000 18.453247
RightHandThumb1 -24.326973 -0.000000 -32.862282
LeftUpLeg -0.442460 8.675713 3.631013
LeftLeg -6.652010 -0.000000 0.000000
LeftFoot -20.780094 31.010641 -11.247580
LeftToeBase 27.490353 -0.000000 -0.000000
RightUpLeg -1.393565 -8.382791 -2.070530
RightLeg -3.558228 -0.000000 0.000000
RightFoot -20.659011 -19.184018 16.793794
RightToeBase 25.479227 -0.000000 -0.000000
